<?xml version='1.0' encoding='iso-8859-1'?>
<svg xmlns="http://www.w3.org/2000/svg" height="100%" version="1.1" width="100%"><defs>
    <style type="text/css">
    
        .stroke {stroke:black;stroke-width:2.22009;stroke-linecap:square}
        .transp {fill:none}
        .black {fill:black}
        .white {fill:white}
        .fnt-times {font-weight:normal;font-size:36;font-family:'Times New Roman'}
        .fnt-museo {font-weight:normal;font-size:64;font-family:'Museo'}
    
    </style>
    </defs><g><polyline class="stroke black" points="0,0 0,100 100,100 100,0" /><polygon class="stroke black" points="0,0 0,100 100,100 100,0" /></g><g><polyline class="stroke black" points="100,0 100,100 200,100 200,0" /><polygon class="stroke black" points="100,0 100,100 200,100 200,0" /></g><g><polyline class="stroke black" points="200,0 200,100 300,100 300,0" /><polygon class="stroke black" points="200,0 200,100 300,100 300,0" /></g><g><polyline class="stroke black" points="300,0 300,100 400,100 400,0" /><polygon class="stroke black" points="300,0 300,100 400,100 400,0" /></g><g><polyline class="stroke black" points="400,0 400,100 500,100 500,0" /><polygon class="stroke black" points="400,0 400,100 500,100 500,0" /></g><g><polyline class="stroke black" points="500,0 500,100 600,100 600,0" /><polygon class="stroke black" points="500,0 500,100 600,100 600,0" /></g><g><polyline class="stroke black" points="600,0 600,100 700,100 700,0" /><polygon class="stroke black" points="600,0 600,100 700,100 700,0" /></g><g><polyline class="stroke black" points="700,0 700,100 800,100 800,0" /><polygon class="stroke black" points="700,0 700,100 800,100 800,0" /></g><g><polyline class="stroke black" points="800,0 800,100 900,100 900,0" /><polygon class="stroke black" points="800,0 800,100 900,100 900,0" /></g><g><polyline class="stroke black" points="900,0 900,100 1000,100 1000,0" /><polygon class="stroke black" points="900,0 900,100 1000,100 1000,0" /></g><g><polyline class="stroke black" points="1000,0 1000,100 1100,100 1100,0" /><polygon class="stroke black" points="1000,0 1000,100 1100,100 1100,0" /></g><g><polyline class="stroke black" points="1100,0 1100,100 1200,100 1200,0" /><polygon class="stroke black" points="1100,0 1100,100 1200,100 1200,0" /></g><g><polyline class="stroke black" points="1200,0 1200,100 1300,100 1300,0" /><polygon class="stroke black" points="1200,0 1200,100 1300,100 1300,0" /></g><g><polyline class="stroke black" points="1300,0 1300,100 1400,100 1400,0" /><polygon class="stroke black" points="1300,0 1300,100 1400,100 1400,0" /></g><g><polyline class="stroke black" points="1400,0 1400,100 1500,100 1500,0" /><polygon class="stroke black" points="1400,0 1400,100 1500,100 1500,0" /></g><g><polyline class="stroke black" points="1500,0 1500,100 1600,100 1600,0" /><polygon class="stroke black" points="1500,0 1500,100 1600,100 1600,0" /></g><g><polyline class="stroke black" points="1600,0 1600,100 1700,100 1700,0" /><polygon class="stroke black" points="1600,0 1600,100 1700,100 1700,0" /></g><g><polyline class="stroke black" points="1700,0 1700,100 1800,100 1800,0" /><polygon class="stroke black" points="1700,0 1700,100 1800,100 1800,0" /></g><g><polyline class="stroke black" points="0,100 0,200 100,200 100,100" /><polygon class="stroke black" points="0,100 0,200 100,200 100,100" /></g><g><polyline class="stroke black" points="100,100 100,200 200,200 200,100" /><polygon class="stroke black" points="100,100 100,200 200,200 200,100" /></g><g><polyline class="stroke black" points="200,100 200,200 300,200 300,100" /><polygon class="stroke black" points="200,100 200,200 300,200 300,100" /></g><g><polyline class="stroke black" points="300,100 300,200 400,200 400,100" /><polygon class="stroke black" points="300,100 300,200 400,200 400,100" /></g><g><polyline class="stroke black" points="400,100 400,200 500,200 500,100" /><polygon class="stroke black" points="400,100 400,200 500,200 500,100" /></g><g><polyline class="stroke black" points="500,100 500,200 600,200 600,100" /><polygon class="stroke black" points="500,100 500,200 600,200 600,100" /></g><g><polyline class="stroke black" points="600,100 600,200 700,200 700,100" /><polygon class="stroke black" points="600,100 600,200 700,200 700,100" /></g><g><polyline class="stroke black" points="700,100 700,200 800,200 800,100" /><polygon class="stroke black" points="700,100 700,200 800,200 800,100" /></g><g><polyline class="stroke black" points="800,100 800,200 900,200 900,100" /><polygon class="stroke black" points="800,100 800,200 900,200 900,100" /></g><g><polyline class="stroke black" points="900,100 900,200 1000,200 1000,100" /><polygon class="stroke black" points="900,100 900,200 1000,200 1000,100" /></g><g><polyline class="stroke black" points="1000,100 1000,200 1100,200 1100,100" /><polygon class="stroke black" points="1000,100 1000,200 1100,200 1100,100" /></g><g><polyline class="stroke black" points="1100,100 1100,200 1200,200 1200,100" /><polygon class="stroke black" points="1100,100 1100,200 1200,200 1200,100" /></g><g><polyline class="stroke black" points="1200,100 1200,200 1300,200 1300,100" /><polygon class="stroke black" points="1200,100 1200,200 1300,200 1300,100" /></g><g><polyline class="stroke white" points="1300,100 1300,200 1400,200 1400,100" /><polygon class="stroke white" points="1300,100 1300,200 1400,200 1400,100" /><text class="fnt-museo black" x="1330" y="170">j</text><text class="fnt-times black" x="1311" y="133">1</text></g><g><polyline class="stroke black" points="1400,100 1400,200 1500,200 1500,100" /><polygon class="stroke black" points="1400,100 1400,200 1500,200 1500,100" /></g><g><polyline class="stroke black" points="1500,100 1500,200 1600,200 1600,100" /><polygon class="stroke black" points="1500,100 1500,200 1600,200 1600,100" /></g><g><polyline class="stroke black" points="1600,100 1600,200 1700,200 1700,100" /><polygon class="stroke black" points="1600,100 1600,200 1700,200 1700,100" /></g><g><polyline class="stroke black" points="1700,100 1700,200 1800,200 1800,100" /><polygon class="stroke black" points="1700,100 1700,200 1800,200 1800,100" /></g><g><polyline class="stroke black" points="0,200 0,300 100,300 100,200" /><polygon class="stroke black" points="0,200 0,300 100,300 100,200" /></g><g><polyline class="stroke black" points="100,200 100,300 200,300 200,200" /><polygon class="stroke black" points="100,200 100,300 200,300 200,200" /></g><g><polyline class="stroke black" points="200,200 200,300 300,300 300,200" /><polygon class="stroke black" points="200,200 200,300 300,300 300,200" /></g><g><polyline class="stroke black" points="300,200 300,300 400,300 400,200" /><polygon class="stroke black" points="300,200 300,300 400,300 400,200" /></g><g><polyline class="stroke black" points="400,200 400,300 500,300 500,200" /><polygon class="stroke black" points="400,200 400,300 500,300 500,200" /></g><g><polyline class="stroke black" points="500,200 500,300 600,300 600,200" /><polygon class="stroke black" points="500,200 500,300 600,300 600,200" /></g><g><polyline class="stroke black" points="600,200 600,300 700,300 700,200" /><polygon class="stroke black" points="600,200 600,300 700,300 700,200" /></g><g><polyline class="stroke black" points="700,200 700,300 800,300 800,200" /><polygon class="stroke black" points="700,200 700,300 800,300 800,200" /></g><g><polyline class="stroke black" points="800,200 800,300 900,300 900,200" /><polygon class="stroke black" points="800,200 800,300 900,300 900,200" /></g><g><polyline class="stroke white" points="900,200 900,300 1000,300 1000,200" /><polygon class="stroke white" points="900,200 900,300 1000,300 1000,200" /><text class="fnt-museo black" x="930" y="270">a</text><text class="fnt-times black" x="911" y="233">2</text></g><g><polyline class="stroke black" points="1000,200 1000,300 1100,300 1100,200" /><polygon class="stroke black" points="1000,200 1000,300 1100,300 1100,200" /></g><g><polyline class="stroke black" points="1100,200 1100,300 1200,300 1200,200" /><polygon class="stroke black" points="1100,200 1100,300 1200,300 1200,200" /></g><g><polyline class="stroke black" points="1200,200 1200,300 1300,300 1300,200" /><polygon class="stroke black" points="1200,200 1200,300 1300,300 1300,200" /></g><g><polyline class="stroke white" points="1300,200 1300,300 1400,300 1400,200" /><polygon class="stroke white" points="1300,200 1300,300 1400,300 1400,200" /><text class="fnt-museo black" x="1330" y="270">a</text></g><g><polyline class="stroke black" points="1400,200 1400,300 1500,300 1500,200" /><polygon class="stroke black" points="1400,200 1400,300 1500,300 1500,200" /></g><g><polyline class="stroke black" points="1500,200 1500,300 1600,300 1600,200" /><polygon class="stroke black" points="1500,200 1500,300 1600,300 1600,200" /></g><g><polyline class="stroke black" points="1600,200 1600,300 1700,300 1700,200" /><polygon class="stroke black" points="1600,200 1600,300 1700,300 1700,200" /></g><g><polyline class="stroke black" points="1700,200 1700,300 1800,300 1800,200" /><polygon class="stroke black" points="1700,200 1700,300 1800,300 1800,200" /></g><g><polyline class="stroke black" points="0,300 0,400 100,400 100,300" /><polygon class="stroke black" points="0,300 0,400 100,400 100,300" /></g><g><polyline class="stroke black" points="100,300 100,400 200,400 200,300" /><polygon class="stroke black" points="100,300 100,400 200,400 200,300" /></g><g><polyline class="stroke black" points="200,300 200,400 300,400 300,300" /><polygon class="stroke black" points="200,300 200,400 300,400 300,300" /></g><g><polyline class="stroke black" points="300,300 300,400 400,400 400,300" /><polygon class="stroke black" points="300,300 300,400 400,400 400,300" /></g><g><polyline class="stroke black" points="400,300 400,400 500,400 500,300" /><polygon class="stroke black" points="400,300 400,400 500,400 500,300" /></g><g><polyline class="stroke black" points="500,300 500,400 600,400 600,300" /><polygon class="stroke black" points="500,300 500,400 600,400 600,300" /></g><g><polyline class="stroke black" points="600,300 600,400 700,400 700,300" /><polygon class="stroke black" points="600,300 600,400 700,400 700,300" /></g><g><polyline class="stroke black" points="700,300 700,400 800,400 800,300" /><polygon class="stroke black" points="700,300 700,400 800,400 800,300" /></g><g><polyline class="stroke black" points="800,300 800,400 900,400 900,300" /><polygon class="stroke black" points="800,300 800,400 900,400 900,300" /></g><g><polyline class="stroke white" points="900,300 900,400 1000,400 1000,300" /><polygon class="stroke white" points="900,300 900,400 1000,400 1000,300" /><text class="fnt-museo black" x="930" y="370">r</text></g><g><polyline class="stroke black" points="1000,300 1000,400 1100,400 1100,300" /><polygon class="stroke black" points="1000,300 1000,400 1100,400 1100,300" /></g><g><polyline class="stroke black" points="1100,300 1100,400 1200,400 1200,300" /><polygon class="stroke black" points="1100,300 1100,400 1200,400 1200,300" /></g><g><polyline class="stroke black" points="1200,300 1200,400 1300,400 1300,300" /><polygon class="stroke black" points="1200,300 1200,400 1300,400 1300,300" /></g><g><polyline class="stroke white" points="1300,300 1300,400 1400,400 1400,300" /><polygon class="stroke white" points="1300,300 1300,400 1400,400 1400,300" /><text class="fnt-museo black" x="1330" y="370">v</text></g><g><polyline class="stroke black" points="1400,300 1400,400 1500,400 1500,300" /><polygon class="stroke black" points="1400,300 1400,400 1500,400 1500,300" /></g><g><polyline class="stroke black" points="1500,300 1500,400 1600,400 1600,300" /><polygon class="stroke black" points="1500,300 1500,400 1600,400 1600,300" /></g><g><polyline class="stroke black" points="1600,300 1600,400 1700,400 1700,300" /><polygon class="stroke black" points="1600,300 1600,400 1700,400 1700,300" /></g><g><polyline class="stroke black" points="1700,300 1700,400 1800,400 1800,300" /><polygon class="stroke black" points="1700,300 1700,400 1800,400 1800,300" /></g><g><polyline class="stroke black" points="0,400 0,500 100,500 100,400" /><polygon class="stroke black" points="0,400 0,500 100,500 100,400" /></g><g><polyline class="stroke black" points="100,400 100,500 200,500 200,400" /><polygon class="stroke black" points="100,400 100,500 200,500 200,400" /></g><g><polyline class="stroke black" points="200,400 200,500 300,500 300,400" /><polygon class="stroke black" points="200,400 200,500 300,500 300,400" /></g><g><polyline class="stroke black" points="300,400 300,500 400,500 400,400" /><polygon class="stroke black" points="300,400 300,500 400,500 400,400" /></g><g><polyline class="stroke black" points="400,400 400,500 500,500 500,400" /><polygon class="stroke black" points="400,400 400,500 500,500 500,400" /></g><g><polyline class="stroke black" points="500,400 500,500 600,500 600,400" /><polygon class="stroke black" points="500,400 500,500 600,500 600,400" /></g><g><polyline class="stroke black" points="600,400 600,500 700,500 700,400" /><polygon class="stroke black" points="600,400 600,500 700,500 700,400" /></g><g><polyline class="stroke black" points="700,400 700,500 800,500 800,400" /><polygon class="stroke black" points="700,400 700,500 800,500 800,400" /></g><g><polyline class="stroke black" points="800,400 800,500 900,500 900,400" /><polygon class="stroke black" points="800,400 800,500 900,500 900,400" /></g><g><polyline class="stroke white" points="900,400 900,500 1000,500 1000,400" /><polygon class="stroke white" points="900,400 900,500 1000,500 1000,400" /><text class="fnt-museo black" x="930" y="470">d</text></g><g><polyline class="stroke black" points="1000,400 1000,500 1100,500 1100,400" /><polygon class="stroke black" points="1000,400 1000,500 1100,500 1100,400" /></g><g><polyline class="stroke black" points="1100,400 1100,500 1200,500 1200,400" /><polygon class="stroke black" points="1100,400 1100,500 1200,500 1200,400" /></g><g><polyline class="stroke black" points="1200,400 1200,500 1300,500 1300,400" /><polygon class="stroke black" points="1200,400 1200,500 1300,500 1300,400" /></g><g><polyline class="stroke white" points="1300,400 1300,500 1400,500 1400,400" /><polygon class="stroke white" points="1300,400 1300,500 1400,500 1400,400" /><text class="fnt-museo black" x="1330" y="470">a</text></g><g><polyline class="stroke black" points="1400,400 1400,500 1500,500 1500,400" /><polygon class="stroke black" points="1400,400 1400,500 1500,500 1500,400" /></g><g><polyline class="stroke black" points="1500,400 1500,500 1600,500 1600,400" /><polygon class="stroke black" points="1500,400 1500,500 1600,500 1600,400" /></g><g><polyline class="stroke black" points="1600,400 1600,500 1700,500 1700,400" /><polygon class="stroke black" points="1600,400 1600,500 1700,500 1700,400" /></g><g><polyline class="stroke black" points="1700,400 1700,500 1800,500 1800,400" /><polygon class="stroke black" points="1700,400 1700,500 1800,500 1800,400" /></g><g><polyline class="stroke black" points="0,500 0,600 100,600 100,500" /><polygon class="stroke black" points="0,500 0,600 100,600 100,500" /></g><g><polyline class="stroke black" points="100,500 100,600 200,600 200,500" /><polygon class="stroke black" points="100,500 100,600 200,600 200,500" /></g><g><polyline class="stroke black" points="200,500 200,600 300,600 300,500" /><polygon class="stroke black" points="200,500 200,600 300,600 300,500" /></g><g><polyline class="stroke black" points="300,500 300,600 400,600 400,500" /><polygon class="stroke black" points="300,500 300,600 400,600 400,500" /></g><g><polyline class="stroke black" points="400,500 400,600 500,600 500,500" /><polygon class="stroke black" points="400,500 400,600 500,600 500,500" /></g><g><polyline class="stroke white" points="500,500 500,600 600,600 600,500" /><polygon class="stroke white" points="500,500 500,600 600,600 600,500" /><text class="fnt-museo black" x="530" y="570">c</text><text class="fnt-times black" x="511" y="533">3</text></g><g><polyline class="stroke black" points="600,500 600,600 700,600 700,500" /><polygon class="stroke black" points="600,500 600,600 700,600 700,500" /></g><g><polyline class="stroke black" points="700,500 700,600 800,600 800,500" /><polygon class="stroke black" points="700,500 700,600 800,600 800,500" /></g><g><polyline class="stroke black" points="800,500 800,600 900,600 900,500" /><polygon class="stroke black" points="800,500 800,600 900,600 900,500" /></g><g><polyline class="stroke white" points="900,500 900,600 1000,600 1000,500" /><polygon class="stroke white" points="900,500 900,600 1000,600 1000,500" /><text class="fnt-museo black" x="930" y="570">u</text></g><g><polyline class="stroke black" points="1000,500 1000,600 1100,600 1100,500" /><polygon class="stroke black" points="1000,500 1000,600 1100,600 1100,500" /></g><g><polyline class="stroke black" points="1100,500 1100,600 1200,600 1200,500" /><polygon class="stroke black" points="1100,500 1100,600 1200,600 1200,500" /></g><g><polyline class="stroke black" points="1200,500 1200,600 1300,600 1300,500" /><polygon class="stroke black" points="1200,500 1200,600 1300,600 1300,500" /></g><g><polyline class="stroke white" points="1300,500 1300,600 1400,600 1400,500" /><polygon class="stroke white" points="1300,500 1300,600 1400,600 1400,500" /><text class="fnt-museo black" x="1330" y="570">s</text></g><g><polyline class="stroke black" points="1400,500 1400,600 1500,600 1500,500" /><polygon class="stroke black" points="1400,500 1400,600 1500,600 1500,500" /></g><g><polyline class="stroke black" points="1500,500 1500,600 1600,600 1600,500" /><polygon class="stroke black" points="1500,500 1500,600 1600,600 1600,500" /></g><g><polyline class="stroke black" points="1600,500 1600,600 1700,600 1700,500" /><polygon class="stroke black" points="1600,500 1600,600 1700,600 1700,500" /></g><g><polyline class="stroke black" points="1700,500 1700,600 1800,600 1800,500" /><polygon class="stroke black" points="1700,500 1700,600 1800,600 1800,500" /></g><g><polyline class="stroke black" points="0,600 0,700 100,700 100,600" /><polygon class="stroke black" points="0,600 0,700 100,700 100,600" /></g><g><polyline class="stroke black" points="100,600 100,700 200,700 200,600" /><polygon class="stroke black" points="100,600 100,700 200,700 200,600" /></g><g><polyline class="stroke black" points="200,600 200,700 300,700 300,600" /><polygon class="stroke black" points="200,600 200,700 300,700 300,600" /></g><g><polyline class="stroke black" points="300,600 300,700 400,700 400,600" /><polygon class="stroke black" points="300,600 300,700 400,700 400,600" /></g><g><polyline class="stroke white" points="400,600 400,700 500,700 500,600" /><polygon class="stroke white" points="400,600 400,700 500,700 500,600" /><text class="fnt-museo black" x="430" y="670">w</text><text class="fnt-times black" x="411" y="633">4</text></g><g><polyline class="stroke white" points="500,600 500,700 600,700 600,600" /><polygon class="stroke white" points="500,600 500,700 600,700 600,600" /><text class="fnt-museo black" x="530" y="670">o</text></g><g><polyline class="stroke white" points="600,600 600,700 700,700 700,600" /><polygon class="stroke white" points="600,600 600,700 700,700 700,600" /><text class="fnt-museo black" x="630" y="670">m</text></g><g><polyline class="stroke white" points="700,600 700,700 800,700 800,600" /><polygon class="stroke white" points="700,600 700,700 800,700 800,600" /><text class="fnt-museo black" x="730" y="670">e</text></g><g><polyline class="stroke white" points="800,600 800,700 900,700 900,600" /><polygon class="stroke white" points="800,600 800,700 900,700 900,600" /><text class="fnt-museo black" x="830" y="670">n</text></g><g><polyline class="stroke white" points="900,600 900,700 1000,700 1000,600" /><polygon class="stroke white" points="900,600 900,700 1000,700 1000,600" /><text class="fnt-museo black" x="930" y="670">i</text></g><g><polyline class="stroke white" points="1000,600 1000,700 1100,700 1100,600" /><polygon class="stroke white" points="1000,600 1000,700 1100,700 1100,600" /><text class="fnt-museo black" x="1030" y="670">n</text></g><g><polyline class="stroke white" points="1100,600 1100,700 1200,700 1200,600" /><polygon class="stroke white" points="1100,600 1100,700 1200,700 1200,600" /><text class="fnt-museo black" x="1130" y="670">t</text></g><g><polyline class="stroke white" points="1200,600 1200,700 1300,700 1300,600" /><polygon class="stroke white" points="1200,600 1200,700 1300,700 1300,600" /><text class="fnt-museo black" x="1230" y="670">e</text></g><g><polyline class="stroke white" points="1300,600 1300,700 1400,700 1400,600" /><polygon class="stroke white" points="1300,600 1300,700 1400,700 1400,600" /><text class="fnt-museo black" x="1330" y="670">c</text></g><g><polyline class="stroke white" points="1400,600 1400,700 1500,700 1500,600" /><polygon class="stroke white" points="1400,600 1400,700 1500,700 1500,600" /><text class="fnt-museo black" x="1430" y="670">h</text></g><g><polyline class="stroke black" points="1500,600 1500,700 1600,700 1600,600" /><polygon class="stroke black" points="1500,600 1500,700 1600,700 1600,600" /></g><g><polyline class="stroke black" points="1600,600 1600,700 1700,700 1700,600" /><polygon class="stroke black" points="1600,600 1600,700 1700,700 1700,600" /></g><g><polyline class="stroke black" points="1700,600 1700,700 1800,700 1800,600" /><polygon class="stroke black" points="1700,600 1700,700 1800,700 1800,600" /></g><g><polyline class="stroke black" points="0,700 0,800 100,800 100,700" /><polygon class="stroke black" points="0,700 0,800 100,800 100,700" /></g><g><polyline class="stroke black" points="100,700 100,800 200,800 200,700" /><polygon class="stroke black" points="100,700 100,800 200,800 200,700" /></g><g><polyline class="stroke white" points="200,700 200,800 300,800 300,700" /><polygon class="stroke white" points="200,700 200,800 300,800 300,700" /><text class="fnt-museo black" x="230" y="770">d</text><text class="fnt-times black" x="211" y="733">5</text></g><g><polyline class="stroke black" points="300,700 300,800 400,800 400,700" /><polygon class="stroke black" points="300,700 300,800 400,800 400,700" /></g><g><polyline class="stroke black" points="400,700 400,800 500,800 500,700" /><polygon class="stroke black" points="400,700 400,800 500,800 500,700" /></g><g><polyline class="stroke white" points="500,700 500,800 600,800 600,700" /><polygon class="stroke white" points="500,700 500,800 600,800 600,700" /><text class="fnt-museo black" x="530" y="770">d</text></g><g><polyline class="stroke black" points="600,700 600,800 700,800 700,700" /><polygon class="stroke black" points="600,700 600,800 700,800 700,700" /></g><g><polyline class="stroke black" points="700,700 700,800 800,800 800,700" /><polygon class="stroke black" points="700,700 700,800 800,800 800,700" /></g><g><polyline class="stroke black" points="800,700 800,800 900,800 900,700" /><polygon class="stroke black" points="800,700 800,800 900,800 900,700" /></g><g><polyline class="stroke white" points="900,700 900,800 1000,800 1000,700" /><polygon class="stroke white" points="900,700 900,800 1000,800 1000,700" /><text class="fnt-museo black" x="930" y="770">n</text></g><g><polyline class="stroke black" points="1000,700 1000,800 1100,800 1100,700" /><polygon class="stroke black" points="1000,700 1000,800 1100,800 1100,700" /></g><g><polyline class="stroke black" points="1100,700 1100,800 1200,800 1200,700" /><polygon class="stroke black" points="1100,700 1100,800 1200,800 1200,700" /></g><g><polyline class="stroke black" points="1200,700 1200,800 1300,800 1300,700" /><polygon class="stroke black" points="1200,700 1200,800 1300,800 1300,700" /></g><g><polyline class="stroke white" points="1300,700 1300,800 1400,800 1400,700" /><polygon class="stroke white" points="1300,700 1300,800 1400,800 1400,700" /><text class="fnt-museo black" x="1330" y="770">r</text></g><g><polyline class="stroke black" points="1400,700 1400,800 1500,800 1500,700" /><polygon class="stroke black" points="1400,700 1400,800 1500,800 1500,700" /></g><g><polyline class="stroke black" points="1500,700 1500,800 1600,800 1600,700" /><polygon class="stroke black" points="1500,700 1500,800 1600,800 1600,700" /></g><g><polyline class="stroke black" points="1600,700 1600,800 1700,800 1700,700" /><polygon class="stroke black" points="1600,700 1600,800 1700,800 1700,700" /></g><g><polyline class="stroke black" points="1700,700 1700,800 1800,800 1800,700" /><polygon class="stroke black" points="1700,700 1700,800 1800,800 1800,700" /></g><g><polyline class="stroke black" points="0,800 0,900 100,900 100,800" /><polygon class="stroke black" points="0,800 0,900 100,900 100,800" /></g><g><polyline class="stroke black" points="100,800 100,900 200,900 200,800" /><polygon class="stroke black" points="100,800 100,900 200,900 200,800" /></g><g><polyline class="stroke white" points="200,800 200,900 300,900 300,800" /><polygon class="stroke white" points="200,800 200,900 300,900 300,800" /><text class="fnt-museo black" x="230" y="870">a</text></g><g><polyline class="stroke black" points="300,800 300,900 400,900 400,800" /><polygon class="stroke black" points="300,800 300,900 400,900 400,800" /></g><g><polyline class="stroke black" points="400,800 400,900 500,900 500,800" /><polygon class="stroke black" points="400,800 400,900 500,900 500,800" /></g><g><polyline class="stroke white" points="500,800 500,900 600,900 600,800" /><polygon class="stroke white" points="500,800 500,900 600,900 600,800" /><text class="fnt-museo black" x="530" y="870">i</text></g><g><polyline class="stroke black" points="600,800 600,900 700,900 700,800" /><polygon class="stroke black" points="600,800 600,900 700,900 700,800" /></g><g><polyline class="stroke black" points="700,800 700,900 800,900 800,800" /><polygon class="stroke black" points="700,800 700,900 800,900 800,800" /></g><g><polyline class="stroke black" points="800,800 800,900 900,900 900,800" /><polygon class="stroke black" points="800,800 800,900 900,900 900,800" /></g><g><polyline class="stroke white" points="900,800 900,900 1000,900 1000,800" /><polygon class="stroke white" points="900,800 900,900 1000,900 1000,800" /><text class="fnt-museo black" x="930" y="870">o</text></g><g><polyline class="stroke black" points="1000,800 1000,900 1100,900 1100,800" /><polygon class="stroke black" points="1000,800 1000,900 1100,900 1100,800" /></g><g><polyline class="stroke white" points="1100,800 1100,900 1200,900 1200,800" /><polygon class="stroke white" points="1100,800 1100,900 1200,900 1200,800" /><text class="fnt-museo black" x="1130" y="870">s</text><text class="fnt-times black" x="1111" y="833">6</text></g><g><polyline class="stroke white" points="1200,800 1200,900 1300,900 1300,800" /><polygon class="stroke white" points="1200,800 1200,900 1300,900 1300,800" /><text class="fnt-museo black" x="1230" y="870">c</text></g><g><polyline class="stroke white" points="1300,800 1300,900 1400,900 1400,800" /><polygon class="stroke white" points="1300,800 1300,900 1400,900 1400,800" /><text class="fnt-museo black" x="1330" y="870">i</text></g><g><polyline class="stroke white" points="1400,800 1400,900 1500,900 1500,800" /><polygon class="stroke white" points="1400,800 1400,900 1500,900 1500,800" /><text class="fnt-museo black" x="1430" y="870">e</text></g><g><polyline class="stroke white" points="1500,800 1500,900 1600,900 1600,800" /><polygon class="stroke white" points="1500,800 1500,900 1600,900 1600,800" /><text class="fnt-museo black" x="1530" y="870">n</text></g><g><polyline class="stroke white" points="1600,800 1600,900 1700,900 1700,800" /><polygon class="stroke white" points="1600,800 1600,900 1700,900 1700,800" /><text class="fnt-museo black" x="1630" y="870">c</text></g><g><polyline class="stroke white" points="1700,800 1700,900 1800,900 1800,800" /><polygon class="stroke white" points="1700,800 1700,900 1800,900 1800,800" /><text class="fnt-museo black" x="1730" y="870">e</text></g><g><polyline class="stroke white" points="0,900 0,1000 100,1000 100,900" /><polygon class="stroke white" points="0,900 0,1000 100,1000 100,900" /><text class="fnt-museo black" x="30" y="970">p</text><text class="fnt-times black" x="11" y="933">7</text></g><g><polyline class="stroke white" points="100,900 100,1000 200,1000 200,900" /><polygon class="stroke white" points="100,900 100,1000 200,1000 200,900" /><text class="fnt-museo black" x="130" y="970">y</text></g><g><polyline class="stroke white" points="200,900 200,1000 300,1000 300,900" /><polygon class="stroke white" points="200,900 200,1000 300,1000 300,900" /><text class="fnt-museo black" x="230" y="970">t</text></g><g><polyline class="stroke white" points="300,900 300,1000 400,1000 400,900" /><polygon class="stroke white" points="300,900 300,1000 400,1000 400,900" /><text class="fnt-museo black" x="330" y="970">h</text></g><g><polyline class="stroke white" points="400,900 400,1000 500,1000 500,900" /><polygon class="stroke white" points="400,900 400,1000 500,1000 500,900" /><text class="fnt-museo black" x="430" y="970">o</text></g><g><polyline class="stroke white" points="500,900 500,1000 600,1000 600,900" /><polygon class="stroke white" points="500,900 500,1000 600,1000 600,900" /><text class="fnt-museo black" x="530" y="970">n</text></g><g><polyline class="stroke black" points="600,900 600,1000 700,1000 700,900" /><polygon class="stroke black" points="600,900 600,1000 700,1000 700,900" /></g><g><polyline class="stroke black" points="700,900 700,1000 800,1000 800,900" /><polygon class="stroke black" points="700,900 700,1000 800,1000 800,900" /></g><g><polyline class="stroke black" points="800,900 800,1000 900,1000 900,900" /><polygon class="stroke black" points="800,900 800,1000 900,1000 900,900" /></g><g><polyline class="stroke white" points="900,900 900,1000 1000,1000 1000,900" /><polygon class="stroke white" points="900,900 900,1000 1000,1000 1000,900" /><text class="fnt-museo black" x="930" y="970">s</text></g><g><polyline class="stroke black" points="1000,900 1000,1000 1100,1000 1100,900" /><polygon class="stroke black" points="1000,900 1000,1000 1100,1000 1100,900" /></g><g><polyline class="stroke black" points="1100,900 1100,1000 1200,1000 1200,900" /><polygon class="stroke black" points="1100,900 1100,1000 1200,1000 1200,900" /></g><g><polyline class="stroke black" points="1200,900 1200,1000 1300,1000 1300,900" /><polygon class="stroke black" points="1200,900 1200,1000 1300,1000 1300,900" /></g><g><polyline class="stroke white" points="1300,900 1300,1000 1400,1000 1400,900" /><polygon class="stroke white" points="1300,900 1300,1000 1400,1000 1400,900" /><text class="fnt-museo black" x="1330" y="970">p</text></g><g><polyline class="stroke black" points="1400,900 1400,1000 1500,1000 1500,900" /><polygon class="stroke black" points="1400,900 1400,1000 1500,1000 1500,900" /></g><g><polyline class="stroke black" points="1500,900 1500,1000 1600,1000 1600,900" /><polygon class="stroke black" points="1500,900 1500,1000 1600,1000 1600,900" /></g><g><polyline class="stroke black" points="1600,900 1600,1000 1700,1000 1700,900" /><polygon class="stroke black" points="1600,900 1600,1000 1700,1000 1700,900" /></g><g><polyline class="stroke black" points="1700,900 1700,1000 1800,1000 1800,900" /><polygon class="stroke black" points="1700,900 1700,1000 1800,1000 1800,900" /></g><g><polyline class="stroke black" points="0,1000 0,1100 100,1100 100,1000" /><polygon class="stroke black" points="0,1000 0,1100 100,1100 100,1000" /></g><g><polyline class="stroke black" points="100,1000 100,1100 200,1100 200,1000" /><polygon class="stroke black" points="100,1000 100,1100 200,1100 200,1000" /></g><g><polyline class="stroke white" points="200,1000 200,1100 300,1100 300,1000" /><polygon class="stroke white" points="200,1000 200,1100 300,1100 300,1000" /><text class="fnt-museo black" x="230" y="1070">a</text></g><g><polyline class="stroke black" points="300,1000 300,1100 400,1100 400,1000" /><polygon class="stroke black" points="300,1000 300,1100 400,1100 400,1000" /></g><g><polyline class="stroke black" points="400,1000 400,1100 500,1100 500,1000" /><polygon class="stroke black" points="400,1000 400,1100 500,1100 500,1000" /></g><g><polyline class="stroke white" points="500,1000 500,1100 600,1100 600,1000" /><polygon class="stroke white" points="500,1000 500,1100 600,1100 600,1000" /><text class="fnt-museo black" x="530" y="1070">g</text></g><g><polyline class="stroke black" points="600,1000 600,1100 700,1100 700,1000" /><polygon class="stroke black" points="600,1000 600,1100 700,1100 700,1000" /></g><g><polyline class="stroke black" points="700,1000 700,1100 800,1100 800,1000" /><polygon class="stroke black" points="700,1000 700,1100 800,1100 800,1000" /></g><g><polyline class="stroke black" points="800,1000 800,1100 900,1100 900,1000" /><polygon class="stroke black" points="800,1000 800,1100 900,1100 900,1000" /></g><g><polyline class="stroke black" points="900,1000 900,1100 1000,1100 1000,1000" /><polygon class="stroke black" points="900,1000 900,1100 1000,1100 1000,1000" /></g><g><polyline class="stroke black" points="1000,1000 1000,1100 1100,1100 1100,1000" /><polygon class="stroke black" points="1000,1000 1000,1100 1100,1100 1100,1000" /></g><g><polyline class="stroke black" points="1100,1000 1100,1100 1200,1100 1200,1000" /><polygon class="stroke black" points="1100,1000 1100,1100 1200,1100 1200,1000" /></g><g><polyline class="stroke black" points="1200,1000 1200,1100 1300,1100 1300,1000" /><polygon class="stroke black" points="1200,1000 1200,1100 1300,1100 1300,1000" /></g><g><polyline class="stroke white" points="1300,1000 1300,1100 1400,1100 1400,1000" /><polygon class="stroke white" points="1300,1000 1300,1100 1400,1100 1400,1000" /><text class="fnt-museo black" x="1330" y="1070">t</text></g><g><polyline class="stroke black" points="1400,1000 1400,1100 1500,1100 1500,1000" /><polygon class="stroke black" points="1400,1000 1400,1100 1500,1100 1500,1000" /></g><g><polyline class="stroke black" points="1500,1000 1500,1100 1600,1100 1600,1000" /><polygon class="stroke black" points="1500,1000 1500,1100 1600,1100 1600,1000" /></g><g><polyline class="stroke black" points="1600,1000 1600,1100 1700,1100 1700,1000" /><polygon class="stroke black" points="1600,1000 1600,1100 1700,1100 1700,1000" /></g><g><polyline class="stroke black" points="1700,1000 1700,1100 1800,1100 1800,1000" /><polygon class="stroke black" points="1700,1000 1700,1100 1800,1100 1800,1000" /></g></svg>
